<svg viewBox="0 0 300 191.1826" width="5000px" height="3186.376698811849px" xmlns="http://www.w3.org/2000/svg" xmlns:xlink="http://www.w3.org/1999/xlink" preserveAspectRatio="none"><defs></defs><style>.companyName {fill:#111111;fill-opacity:1;}.icon1 {fill:#3E3E3E;fill-opacity:1;}.icon2 {fill:#111111;fill-opacity:1;}.icon3 {fill:#3A3A3A;fill-opacity:1;}.text {fill:#111111;fill-opacity:1;}</style><g opacity="1" transform="rotate(0 105 0)">
<svg width="90" height="120.5037" x="105" y="0" version="1.1" preserveAspectRatio="none" viewBox="-13.77558135986328 -22.76799774169922 67.21858215332031 90.0009994506836">
  <g transform="matrix(1 0 0 1 0 0)" class="icon1"><path d="M17.91,25.109c0.283,0.123,7.021,2.999,15.371,2.999c7.943,0,14.506-2.576,19.512-7.651l0.65-0.659l-0.823-0.423  c-0.229-0.117-5.684-2.867-13.618-2.867c-7.168,0-13.919,2.219-20.088,6.595c8.212-8.743,18.012-17.524,29.383-25.016L47.548-3.05  C40.8,1.396,34.603,6.293,28.956,11.367c9.133-18.272-1.117-33.224-1.225-33.377l-0.529-0.758l-0.562,0.737  c-11.69,15.25,0.082,34.991,0.202,35.189l0.054,0.087c-5.546,5.146-10.53,10.437-14.95,15.595  C19.167,11.631,9.774-2.088,9.671-2.234L9.137-2.993L8.574-2.256c-11.11,14.498-1.022,33.042,0.104,35.007  C3.066,39.642-1.504,46.155-5.018,51.598c6.801-16.952-2.392-30.384-2.494-30.528l-0.533-0.76l-0.563,0.737  c-11.688,15.251,0.088,34.995,0.208,35.191l0.238,0.39c-3.653,6.044-5.522,9.893-5.583,10.021l1.227,0.584  c0.096-0.2,4.775-9.824,13.931-22.7l0.115,0.05c0.28,0.122,7.016,2.999,15.37,2.999c7.94,0,14.503-2.576,19.506-7.648l0.65-0.662  l-0.825-0.422c-0.229-0.117-5.678-2.865-13.618-2.865c-6.939,0-13.488,2.086-19.497,6.191c3.978-5.434,8.709-11.352,14.185-17.329  L17.91,25.109z M28.047,10.12l-0.688-30.125C29.452-16.239,34.861-4.187,28.047,10.12z M26.028-18.666l0.653,28.558  C24.223,4.627,19.75-7.83,26.028-18.666z M21.163,24.823l28.381-3.296c-4.399,3.457-9.85,5.221-16.263,5.221  C28.317,26.748,23.864,25.662,21.163,24.823z M50.703,20.027L20.78,23.503c5.644-3.725,11.754-5.635,18.222-5.635  C44.404,17.868,48.671,19.231,50.703,20.027z M9.987,29.894L9.297-0.227C11.398,3.538,16.812,15.572,9.987,29.894z M7.967,1.104  l0.654,28.564C6.162,24.404,1.683,11.94,7.967,1.104z M-7.194,53.202l-0.69-30.132C-5.787,26.828-0.365,38.869-7.194,53.202z   M-9.214,24.411l0.654,28.555C-11.021,47.698-15.492,35.243-9.214,24.411z M4.789,44.297l28.368-3.296  c-4.4,3.455-9.849,5.216-16.258,5.216C11.938,46.217,7.491,45.136,4.789,44.297z M22.616,37.342c5.409,0,9.676,1.363,11.706,2.159  L4.385,42.979C10.029,39.252,16.146,37.342,22.616,37.342z"></path></g>
</svg>
</g><g opacity="1" transform="rotate(0 15.846699999999998 177.39159999999998)">
<svg width="268.3066" height="13.791" x="15.846699999999998" y="177.39159999999998" version="1.1" preserveAspectRatio="none" viewBox="1.72 -31.96 626.76 32.24">
  <g transform="matrix(1 0 0 1 0 0)" class="text"><path d="M1.72-31.96L6.40-31.96L6-23.44L2.20-23.44L1.72-31.96ZM8.48-31.96L13.16-31.96L12.76-23.44L8.96-23.44L8.48-31.96Z M17.44-28.24L38.64-28.24L38.64-23.76L30.84-23.76L30.84 0L25.20 0L25.20-23.76L17.44-23.76L17.44-28.24Z M56.96-22.48Q60.80-22.48 63.08-19.96Q65.36-17.44 65.36-12.88L65.36-12.88L65.36 0L59.76 0L59.76-12.24Q59.76-14.88 58.40-16.34Q57.04-17.80 54.68-17.80L54.68-17.80Q52.28-17.80 50.84-16.24Q49.40-14.68 49.40-11.76L49.40-11.76L49.40 0L43.76 0L43.76-29.60L49.40-29.60L49.40-17.72Q50.28-19.96 52.30-21.22Q54.32-22.48 56.96-22.48L56.96-22.48Z M93.16-11.92Q93.16-11.08 92.96-10L92.96-10L76.72-10Q76.84-7.04 78.32-5.64Q79.80-4.24 82-4.24L82-4.24Q83.96-4.24 85.26-5.20Q86.56-6.16 86.92-7.80L86.92-7.80L92.88-7.80Q92.44-5.48 91-3.64Q89.56-1.80 87.30-0.76Q85.04 0.28 82.28 0.28L82.28 0.28Q79.04 0.28 76.52-1.10Q74-2.48 72.60-5.04Q71.20-7.60 71.20-11.08L71.20-11.08Q71.20-14.56 72.60-17.14Q74-19.72 76.52-21.08Q79.04-22.44 82.28-22.44L82.28-22.44Q85.56-22.44 88.02-21.08Q90.48-19.72 91.82-17.34Q93.16-14.96 93.16-11.92L93.16-11.92ZM87.48-12.48Q87.60-15.20 86.06-16.60Q84.52-18 82.28-18L82.28-18Q80-18 78.44-16.60Q76.88-15.20 76.72-12.48L76.72-12.48L87.48-12.48Z M123.08-22.48Q126.92-22.48 129.20-19.96Q131.48-17.44 131.48-12.88L131.48-12.88L131.48 0L125.88 0L125.88-12.24Q125.88-14.88 124.52-16.34Q123.16-17.80 120.80-17.80L120.80-17.80Q118.40-17.80 116.96-16.24Q115.52-14.68 115.52-11.76L115.52-11.76L115.52 0L109.88 0L109.88-22.16L115.52-22.16L115.52-17.72Q116.40-19.96 118.42-21.22Q120.44-22.48 123.08-22.48L123.08-22.48Z M147.12-22.44Q149.92-22.44 151.92-21.12Q153.92-19.80 154.76-17.56L154.76-17.56L154.76-22.16L160.36-22.16L160.36 0L154.76 0L154.76-4.64Q153.92-2.40 151.92-1.06Q149.92 0.28 147.12 0.28L147.12 0.28Q144.32 0.28 142.08-1.08Q139.84-2.44 138.58-5.02Q137.32-7.60 137.32-11.08L137.32-11.08Q137.32-14.56 138.58-17.14Q139.84-19.72 142.08-21.08Q144.32-22.44 147.12-22.44L147.12-22.44ZM148.88-17.52Q146.24-17.52 144.64-15.80Q143.04-14.08 143.04-11.08L143.04-11.08Q143.04-8.08 144.64-6.38Q146.24-4.68 148.88-4.68L148.88-4.68Q151.44-4.68 153.10-6.42Q154.76-8.16 154.76-11.08L154.76-11.08Q154.76-14.04 153.10-15.78Q151.44-17.52 148.88-17.52L148.88-17.52Z M195.68-22.48Q199.72-22.48 202.06-19.98Q204.40-17.48 204.40-12.88L204.40-12.88L204.40 0L198.80 0L198.80-12.24Q198.80-14.80 197.50-16.18Q196.20-17.56 193.92-17.56L193.92-17.56Q191.56-17.56 190.16-16.08Q188.76-14.60 188.76-11.76L188.76-11.76L188.76 0L183.16 0L183.16-12.24Q183.16-14.80 181.86-16.18Q180.56-17.56 178.28-17.56L178.28-17.56Q175.92-17.56 174.52-16.08Q173.12-14.60 173.12-11.76L173.12-11.76L173.12 0L167.48 0L167.48-22.16L173.12-22.16L173.12-17.96Q174-20.12 175.90-21.30Q177.80-22.48 180.32-22.48L180.32-22.48Q183-22.48 184.98-21.20Q186.96-19.92 187.96-17.52L187.96-17.52Q189-19.80 191.06-21.14Q193.12-22.48 195.68-22.48L195.68-22.48Z M232.20-11.92Q232.20-11.08 232.00-10L232.00-10L215.76-10Q215.88-7.04 217.36-5.64Q218.84-4.24 221.04-4.24L221.04-4.24Q223.00-4.24 224.30-5.20Q225.60-6.16 225.96-7.80L225.96-7.80L231.92-7.80Q231.48-5.48 230.04-3.64Q228.60-1.80 226.34-0.76Q224.08 0.28 221.32 0.28L221.32 0.28Q218.08 0.28 215.56-1.10Q213.04-2.48 211.64-5.04Q210.24-7.60 210.24-11.08L210.24-11.08Q210.24-14.56 211.64-17.14Q213.04-19.72 215.56-21.08Q218.08-22.44 221.32-22.44L221.32-22.44Q224.60-22.44 227.06-21.08Q229.52-19.72 230.86-17.34Q232.20-14.96 232.20-11.92L232.20-11.92ZM226.52-12.48Q226.64-15.20 225.10-16.60Q223.56-18 221.32-18L221.32-18Q219.04-18 217.48-16.60Q215.92-15.20 215.76-12.48L215.76-12.48L226.52-12.48Z M248.28-28.52Q248.28-29.88 249.24-30.74Q250.20-31.60 251.76-31.60L251.76-31.60Q253.32-31.60 254.28-30.74Q255.24-29.88 255.24-28.52L255.24-28.52Q255.24-27.20 254.28-26.34Q253.32-25.48 251.76-25.48L251.76-25.48Q250.20-25.48 249.24-26.34Q248.28-27.20 248.28-28.52L248.28-28.52ZM248.92-22.16L254.56-22.16L254.56 0L248.92 0L248.92-22.16Z M269.32-22.44Q273.36-22.44 275.80-20.40Q278.24-18.36 278.84-14.96L278.84-14.96L273.56-14.96Q273.24-16.56 272.12-17.52Q271-18.48 269.20-18.48L269.20-18.48Q267.76-18.48 266.96-17.80Q266.16-17.12 266.16-15.96L266.16-15.96Q266.16-15.04 266.80-14.48Q267.44-13.92 268.40-13.60Q269.36-13.28 271.16-12.84L271.16-12.84Q273.68-12.28 275.26-11.66Q276.84-11.04 277.98-9.70Q279.12-8.36 279.12-6.08L279.12-6.08Q279.12-3.24 276.90-1.48Q274.68 0.28 270.92 0.28L270.92 0.28Q266.60 0.28 264-1.66Q261.40-3.60 260.84-7.20L260.84-7.20L266.24-7.20Q266.44-5.56 267.68-4.62Q268.92-3.68 270.92-3.68L270.92-3.68Q272.36-3.68 273.12-4.38Q273.88-5.08 273.88-6.20L273.88-6.20Q273.88-7.16 273.22-7.76Q272.56-8.36 271.58-8.68Q270.60-9 268.80-9.44L268.80-9.44Q266.32-10 264.78-10.58Q263.24-11.16 262.14-12.44Q261.04-13.72 261.04-15.96L261.04-15.96Q261.04-18.84 263.24-20.64Q265.44-22.44 269.32-22.44L269.32-22.44Z M305.68-4.84L307.88-4.84L307.88 0L304.92 0Q301.20 0 299.22-1.80Q297.24-3.60 297.24-7.80L297.24-7.80L297.24-17.40L294.16-17.40L294.16-22.16L297.24-22.16L297.24-27.64L302.88-27.64L302.88-22.16L307.84-22.16L307.84-17.40L302.88-17.40L302.88-7.72Q302.88-6.12 303.52-5.48Q304.16-4.84 305.68-4.84L305.68-4.84Z M327.12-22.48Q330.96-22.48 333.24-19.96Q335.52-17.44 335.52-12.88L335.52-12.88L335.52 0L329.92 0L329.92-12.24Q329.92-14.88 328.56-16.34Q327.20-17.80 324.84-17.80L324.84-17.80Q322.44-17.80 321-16.24Q319.56-14.68 319.56-11.76L319.56-11.76L319.56 0L313.92 0L313.92-29.60L319.56-29.60L319.56-17.72Q320.44-19.96 322.46-21.22Q324.48-22.48 327.12-22.48L327.12-22.48Z M363.32-11.92Q363.32-11.08 363.12-10L363.12-10L346.88-10Q347-7.04 348.48-5.64Q349.96-4.24 352.16-4.24L352.16-4.24Q354.12-4.24 355.42-5.20Q356.72-6.16 357.08-7.80L357.08-7.80L363.04-7.80Q362.60-5.48 361.16-3.64Q359.72-1.80 357.46-0.76Q355.20 0.28 352.44 0.28L352.44 0.28Q349.20 0.28 346.68-1.10Q344.16-2.48 342.76-5.04Q341.36-7.60 341.36-11.08L341.36-11.08Q341.36-14.56 342.76-17.14Q344.16-19.72 346.68-21.08Q349.20-22.44 352.44-22.44L352.44-22.44Q355.72-22.44 358.18-21.08Q360.64-19.72 361.98-17.34Q363.32-14.96 363.32-11.92L363.32-11.92ZM357.64-12.48Q357.76-15.20 356.22-16.60Q354.68-18 352.44-18L352.44-18Q350.16-18 348.60-16.60Q347.04-15.20 346.88-12.48L346.88-12.48L357.64-12.48Z M393.12-28.52Q398.28-28.52 401.68-25.98Q405.08-23.44 406.04-19.12L406.04-19.12L400.12-19.12Q399.28-21.04 397.46-22.18Q395.64-23.32 393.16-23.32L393.16-23.32Q390.72-23.32 388.84-22.20Q386.96-21.08 385.92-19Q384.88-16.92 384.88-14.12L384.88-14.12Q384.88-9.68 387.26-7.20Q389.64-4.72 393.76-4.72L393.76-4.72Q396.80-4.72 398.98-6.52Q401.16-8.32 401.80-11.52L401.80-11.52L392.24-11.52L392.24-15.56L406.52-15.56L406.52-10.12Q405.92-7.32 404.18-4.96Q402.44-2.60 399.62-1.18Q396.80 0.24 393.16 0.24L393.16 0.24Q389 0.24 385.82-1.58Q382.64-3.40 380.90-6.66Q379.16-9.92 379.16-14.12L379.16-14.12Q379.16-18.32 380.90-21.58Q382.64-24.84 385.80-26.68Q388.96-28.52 393.12-28.52L393.12-28.52Z M428.32-22.16L433.96-22.16L433.96 0L428.32 0L428.32-4.48Q427.44-2.24 425.42-0.98Q423.40 0.28 420.76 0.28L420.76 0.28Q416.92 0.28 414.64-2.24Q412.36-4.76 412.36-9.28L412.36-9.28L412.36-22.16L417.96-22.16L417.96-9.92Q417.96-7.28 419.32-5.82Q420.68-4.36 423.00-4.36L423.00-4.36Q425.44-4.36 426.88-5.92Q428.32-7.48 428.32-10.40L428.32-10.40L428.32-22.16Z M449.76-22.44Q452.56-22.44 454.56-21.12Q456.56-19.80 457.40-17.56L457.40-17.56L457.40-22.16L463.00-22.16L463.00 0L457.40 0L457.40-4.64Q456.56-2.40 454.56-1.06Q452.56 0.28 449.76 0.28L449.76 0.28Q446.96 0.28 444.72-1.08Q442.48-2.44 441.22-5.02Q439.96-7.60 439.96-11.08L439.96-11.08Q439.96-14.56 441.22-17.14Q442.48-19.72 444.72-21.08Q446.96-22.44 449.76-22.44L449.76-22.44ZM451.52-17.52Q448.88-17.52 447.28-15.80Q445.68-14.08 445.68-11.08L445.68-11.08Q445.68-8.08 447.28-6.38Q448.88-4.68 451.52-4.68L451.52-4.68Q454.08-4.68 455.74-6.42Q457.40-8.16 457.40-11.08L457.40-11.08Q457.40-14.04 455.74-15.78Q454.08-17.52 451.52-17.52L451.52-17.52Z M475.76-17.92Q477.00-20.04 479.04-21.26Q481.08-22.48 483.60-22.48L483.60-22.48L483.60-16.44L481.96-16.44Q475.76-16.44 475.76-10.68L475.76-10.68L475.76 0L470.12 0L470.12-22.16L475.76-22.16L475.76-17.92Z M497.40-22.44Q500.20-22.44 502.20-21.12Q504.20-19.80 505.04-17.56L505.04-17.56L505.04-22.16L510.64-22.16L510.64 0L505.04 0L505.04-4.64Q504.20-2.40 502.20-1.06Q500.20 0.28 497.40 0.28L497.40 0.28Q494.60 0.28 492.36-1.08Q490.12-2.44 488.86-5.02Q487.60-7.60 487.60-11.08L487.60-11.08Q487.60-14.56 488.86-17.14Q490.12-19.72 492.36-21.08Q494.60-22.44 497.40-22.44L497.40-22.44ZM499.16-17.52Q496.52-17.52 494.92-15.80Q493.32-14.08 493.32-11.08L493.32-11.08Q493.32-8.08 494.92-6.38Q496.52-4.68 499.16-4.68L499.16-4.68Q501.72-4.68 503.38-6.42Q505.04-8.16 505.04-11.08L505.04-11.08Q505.04-14.04 503.38-15.78Q501.72-17.52 499.16-17.52L499.16-17.52Z M530.96-22.48Q534.80-22.48 537.08-19.96Q539.36-17.44 539.36-12.88L539.36-12.88L539.36 0L533.76 0L533.76-12.24Q533.76-14.88 532.40-16.34Q531.04-17.80 528.68-17.80L528.68-17.80Q526.28-17.80 524.84-16.24Q523.40-14.68 523.40-11.76L523.40-11.76L523.40 0L517.76 0L517.76-22.16L523.40-22.16L523.40-17.72Q524.28-19.96 526.30-21.22Q528.32-22.48 530.96-22.48L530.96-22.48Z M555.96-4.84L558.16-4.84L558.16 0L555.20 0Q551.48 0 549.50-1.80Q547.52-3.60 547.52-7.80L547.52-7.80L547.52-17.40L544.44-17.40L544.44-22.16L547.52-22.16L547.52-27.64L553.16-27.64L553.16-22.16L558.12-22.16L558.12-17.40L553.16-17.40L553.16-7.72Q553.16-6.12 553.80-5.48Q554.44-4.84 555.96-4.84L555.96-4.84Z M585.04-11.92Q585.04-11.08 584.84-10L584.84-10L568.60-10Q568.72-7.04 570.20-5.64Q571.68-4.24 573.88-4.24L573.88-4.24Q575.84-4.24 577.14-5.20Q578.44-6.16 578.80-7.80L578.80-7.80L584.76-7.80Q584.32-5.48 582.88-3.64Q581.44-1.80 579.18-0.76Q576.92 0.28 574.16 0.28L574.16 0.28Q570.92 0.28 568.40-1.10Q565.88-2.48 564.48-5.04Q563.08-7.60 563.08-11.08L563.08-11.08Q563.08-14.56 564.48-17.14Q565.88-19.72 568.40-21.08Q570.92-22.44 574.16-22.44L574.16-22.44Q577.44-22.44 579.90-21.08Q582.36-19.72 583.70-17.34Q585.04-14.96 585.04-11.92L585.04-11.92ZM579.36-12.48Q579.48-15.20 577.94-16.60Q576.40-18 574.16-18L574.16-18Q571.88-18 570.32-16.60Q568.76-15.20 568.60-12.48L568.60-12.48L579.36-12.48Z M611.88-11.92Q611.88-11.08 611.68-10L611.68-10L595.44-10Q595.56-7.04 597.04-5.64Q598.52-4.24 600.72-4.24L600.72-4.24Q602.68-4.24 603.98-5.20Q605.28-6.16 605.64-7.80L605.64-7.80L611.60-7.80Q611.16-5.48 609.72-3.64Q608.28-1.80 606.02-0.76Q603.76 0.28 601 0.28L601 0.28Q597.76 0.28 595.24-1.10Q592.72-2.48 591.32-5.04Q589.92-7.60 589.92-11.08L589.92-11.08Q589.92-14.56 591.32-17.14Q592.72-19.72 595.24-21.08Q597.76-22.44 601-22.44L601-22.44Q604.28-22.44 606.74-21.08Q609.20-19.72 610.54-17.34Q611.88-14.96 611.88-11.92L611.88-11.92ZM606.20-12.48Q606.32-15.20 604.78-16.60Q603.24-18 601-18L601-18Q598.72-18 597.16-16.60Q595.60-15.20 595.44-12.48L595.44-12.48L606.20-12.48Z M617.04-31.96L621.72-31.96L621.32-23.44L617.52-23.44L617.04-31.96ZM623.80-31.96L628.48-31.96L628.08-23.44L624.28-23.44L623.80-31.96Z"></path></g>
</svg>
</g><g opacity="1" transform="rotate(0 0 142.91409999999996)">
<svg width="300" height="20.6865" x="0" y="142.91409999999996" version="1.1" preserveAspectRatio="none" viewBox="0 -28.8 421.72 29.08">
  <g transform="matrix(1 0 0 1 0 0)" class="companyName"><path d="M21.56 0L20.16-4.28L10.72-4.28L9.32 0L0 0L10.36-28.32L20.60-28.32L30.92 0L21.56 0ZM12.88-10.96L18-10.96L15.44-18.84L12.88-10.96Z M60.08-28.32L60.08 0L51.20 0L41.80-14.24L41.80 0L32.92 0L32.92-28.32L41.80-28.32L51.20-13.84L51.20-28.32L60.08-28.32Z M77.88-28.80Q81.88-28.80 85.20-26.94Q88.52-25.08 90.46-21.76Q92.40-18.44 92.40-14.28L92.40-14.28Q92.40-10.12 90.46-6.80Q88.52-3.48 85.18-1.60Q81.84 0.28 77.88 0.28L77.88 0.28Q73.88 0.28 70.54-1.60Q67.20-3.48 65.24-6.80Q63.28-10.12 63.28-14.28L63.28-14.28Q63.28-18.44 65.24-21.76Q67.20-25.08 70.54-26.94Q73.88-28.80 77.88-28.80L77.88-28.80ZM77.88-20.60Q75.20-20.60 73.76-18.90Q72.32-17.20 72.32-14.28L72.32-14.28Q72.32-11.40 73.76-9.70Q75.20-8 77.88-8L77.88-8Q80.52-8 81.96-9.70Q83.40-11.40 83.40-14.28L83.40-14.28Q83.40-17.20 81.96-18.90Q80.52-20.60 77.88-20.60L77.88-20.60Z M109.40-28.80Q113.40-28.80 116.72-26.94Q120.04-25.08 121.98-21.76Q123.92-18.44 123.92-14.28L123.92-14.28Q123.92-10.12 121.98-6.80Q120.04-3.48 116.70-1.60Q113.36 0.28 109.40 0.28L109.40 0.28Q105.40 0.28 102.06-1.60Q98.72-3.48 96.76-6.80Q94.80-10.12 94.80-14.28L94.80-14.28Q94.80-18.44 96.76-21.76Q98.72-25.08 102.06-26.94Q105.40-28.80 109.40-28.80L109.40-28.80ZM109.40-20.60Q106.72-20.60 105.28-18.90Q103.84-17.20 103.84-14.28L103.84-14.28Q103.84-11.40 105.28-9.70Q106.72-8 109.40-8L109.40-8Q112.04-8 113.48-9.70Q114.92-11.40 114.92-14.28L114.92-14.28Q114.92-17.20 113.48-18.90Q112.04-20.60 109.40-20.60L109.40-20.60Z M139.52-9L136-9L136 0L127.12 0L127.12-28.32L139.52-28.32Q144.72-28.32 147.50-25.68Q150.28-23.04 150.28-18.60L150.28-18.60Q150.28-15.92 149.04-13.74Q147.80-11.56 145.38-10.28Q142.96-9 139.52-9L139.52-9ZM138.52-16Q141.28-16 141.28-18.60L141.28-18.60Q141.28-21.20 138.52-21.20L138.52-21.20L136-21.20L136-16L138.52-16Z M178.76-21.28L168.76-21.28L168.76-17.76L177.56-17.76L177.56-11.08L168.76-11.08L168.76-7.08L178.76-7.08L178.76 0L159.88 0L159.88-28.32L178.76-28.32L178.76-21.28Z M209.28-28.32L209.28 0L200.40 0L191-14.24L191 0L182.12 0L182.12-28.32L191-28.32L200.40-13.84L200.40-28.32L209.28-28.32Z M211.68-28.32L235.52-28.32L235.52-21.28L228-21.28L228 0L219.12 0L219.12-21.28L211.68-21.28L211.68-28.32Z M256.80-21.28L246.80-21.28L246.80-17.76L255.60-17.76L255.60-11.08L246.80-11.08L246.80-7.08L256.80-7.08L256.80 0L237.92 0L237.92-28.32L256.80-28.32L256.80-21.28Z M284.16 0L274.40 0L269.04-10.16L269.04 0L260.16 0L260.16-28.32L273.36-28.32Q276.80-28.32 279.24-27.10Q281.68-25.88 282.90-23.78Q284.12-21.68 284.12-19.04L284.12-19.04Q284.12-16.20 282.54-14Q280.96-11.80 278-10.84L278-10.84L284.16 0ZM269.04-20.88L269.04-16.08L272.56-16.08Q273.84-16.08 274.48-16.66Q275.12-17.24 275.12-18.48L275.12-18.48Q275.12-19.60 274.46-20.24Q273.80-20.88 272.56-20.88L272.56-20.88L269.04-20.88Z M299.36-9L295.84-9L295.84 0L286.96 0L286.96-28.32L299.36-28.32Q304.56-28.32 307.34-25.68Q310.12-23.04 310.12-18.60L310.12-18.60Q310.12-15.92 308.88-13.74Q307.64-11.56 305.22-10.28Q302.80-9 299.36-9L299.36-9ZM298.36-16Q301.12-16 301.12-18.60L301.12-18.60Q301.12-21.20 298.36-21.20L298.36-21.20L295.84-21.20L295.84-16L298.36-16Z M336.92 0L327.16 0L321.80-10.16L321.80 0L312.92 0L312.92-28.32L326.12-28.32Q329.56-28.32 332-27.10Q334.44-25.88 335.66-23.78Q336.88-21.68 336.88-19.04L336.88-19.04Q336.88-16.20 335.30-14Q333.72-11.80 330.76-10.84L330.76-10.84L336.92 0ZM321.80-20.88L321.80-16.08L325.32-16.08Q326.60-16.08 327.24-16.66Q327.88-17.24 327.88-18.48L327.88-18.48Q327.88-19.60 327.22-20.24Q326.56-20.88 325.32-20.88L325.32-20.88L321.80-20.88Z M339.72-28.32L348.60-28.32L348.60 0L339.72 0L339.72-28.32Z M374.48-8.36Q374.48-5.92 373.22-3.96Q371.96-2 369.56-0.86Q367.16 0.28 363.84 0.28L363.84 0.28Q358.76 0.28 355.46-2.10Q352.16-4.48 351.88-9.08L351.88-9.08L361.32-9.08Q361.52-6.64 363.48-6.64L363.48-6.64Q364.16-6.64 364.58-7Q365-7.36 365-8.04L365-8.04Q365-9.04 363.98-9.62Q362.96-10.20 360.68-10.96L360.68-10.96Q358-11.84 356.22-12.76Q354.44-13.68 353.12-15.48Q351.80-17.28 351.80-20.16L351.80-20.16Q351.80-22.92 353.22-24.86Q354.64-26.80 357.10-27.80Q359.56-28.80 362.64-28.80L362.64-28.80Q367.72-28.80 370.72-26.44Q373.72-24.08 374-19.64L374-19.64L364.44-19.64Q364.24-21.88 362.60-21.88L362.60-21.88Q362.04-21.88 361.68-21.54Q361.32-21.20 361.32-20.52L361.32-20.52Q361.32-19.60 362.34-19.02Q363.36-18.44 365.52-17.68L365.52-17.68Q368.24-16.72 370.02-15.78Q371.80-14.84 373.14-13.02Q374.48-11.20 374.48-8.36L374.48-8.36Z M396.48-21.28L386.48-21.28L386.48-17.76L395.28-17.76L395.28-11.08L386.48-11.08L386.48-7.08L396.48-7.08L396.48 0L377.60 0L377.60-28.32L396.48-28.32L396.48-21.28Z M421.72-8.36Q421.72-5.92 420.46-3.96Q419.20-2 416.80-0.86Q414.40 0.28 411.08 0.28L411.08 0.28Q406.00 0.28 402.70-2.10Q399.40-4.48 399.12-9.08L399.12-9.08L408.56-9.08Q408.76-6.64 410.72-6.64L410.72-6.64Q411.40-6.64 411.82-7Q412.24-7.36 412.24-8.04L412.24-8.04Q412.24-9.04 411.22-9.62Q410.20-10.20 407.92-10.96L407.92-10.96Q405.24-11.84 403.46-12.76Q401.68-13.68 400.36-15.48Q399.04-17.28 399.04-20.16L399.04-20.16Q399.04-22.92 400.46-24.86Q401.88-26.80 404.34-27.80Q406.80-28.80 409.88-28.80L409.88-28.80Q414.96-28.80 417.96-26.44Q420.96-24.08 421.24-19.64L421.24-19.64L411.68-19.64Q411.48-21.88 409.84-21.88L409.84-21.88Q409.28-21.88 408.92-21.54Q408.56-21.20 408.56-20.52L408.56-20.52Q408.56-19.60 409.58-19.02Q410.60-18.44 412.76-17.68L412.76-17.68Q415.48-16.72 417.26-15.78Q419.04-14.84 420.38-13.02Q421.72-11.20 421.72-8.36L421.72-8.36Z"></path></g>
</svg>
</g></svg>